name GIL12_fast2.mot
datacolumns 153
datarows 4
range 0.09166671 0.11666670
endheader

                time	           pelvis_tx	           pelvis_ty	           pelvis_tz	         pelvis_tilt	         pelvis_list	     pelvis_rotation	       hip_flexion_r	     hip_adduction_r	      hip_rotation_r	        knee_angle_r	       ankle_angle_r	    subtalar_angle_r	         mtp_angle_r	       hip_flexion_l	     hip_adduction_l	      hip_rotation_l	        knee_angle_l	       ankle_angle_l	    subtalar_angle_l	         mtp_angle_l	    lumbar_extension	      lumbar_bending	     lumbar_rotation	     ground_force_vx	     ground_force_vy	     ground_force_vz	     ground_force_px	     ground_force_py	     ground_force_pz	     ground_force_vx	     ground_force_vy	     ground_force_vz	     ground_force_px	     ground_force_py	     ground_force_pz	     ground_torque_x	     ground_torque_y	     ground_torque_z	     ground_torque_x	     ground_torque_y	     ground_torque_z	    ground_marker_px	    ground_marker_py	    ground_marker_pz	    ground_marker_px	    ground_marker_py	    ground_marker_pz	    ground_marker_px	    ground_marker_py	    ground_marker_pz	    ground_marker_px	    ground_marker_py	    ground_marker_pz	    ground_marker_px	    ground_marker_py	    ground_marker_pz	    ground_marker_px	    ground_marker_py	    ground_marker_pz	    ground_marker_px	    ground_marker_py	    ground_marker_pz	    ground_marker_px	    ground_marker_py	    ground_marker_pz	    ground_marker_px	    ground_marker_py	    ground_marker_pz	    ground_marker_px	    ground_marker_py	    ground_marker_pz	    ground_marker_px	    ground_marker_py	    ground_marker_pz	    ground_marker_px	    ground_marker_py	    ground_marker_pz	    ground_marker_px	    ground_marker_py	    ground_marker_pz	    ground_marker_px	    ground_marker_py	    ground_marker_pz	    ground_marker_px	    ground_marker_py	    ground_marker_pz	    ground_marker_px	    ground_marker_py	    ground_marker_pz	    ground_marker_px	    ground_marker_py	    ground_marker_pz	    ground_marker_px	    ground_marker_py	    ground_marker_pz	    ground_marker_px	    ground_marker_py	    ground_marker_pz	    ground_marker_px	    ground_marker_py	    ground_marker_pz	    ground_marker_px	    ground_marker_py	    ground_marker_pz	    ground_marker_px	    ground_marker_py	    ground_marker_pz	    ground_marker_px	    ground_marker_py	    ground_marker_pz	    ground_marker_px	    ground_marker_py	    ground_marker_pz	    ground_marker_px	    ground_marker_py	    ground_marker_pz	    ground_marker_px	    ground_marker_py	    ground_marker_pz	    ground_marker_px	    ground_marker_py	    ground_marker_pz	    ground_marker_px	    ground_marker_py	    ground_marker_pz	    ground_marker_px	    ground_marker_py	    ground_marker_pz	    ground_marker_px	    ground_marker_py	    ground_marker_pz	    ground_marker_px	    ground_marker_py	    ground_marker_pz	    ground_marker_px	    ground_marker_py	    ground_marker_pz	    ground_marker_px	    ground_marker_py	    ground_marker_pz	    ground_marker_px	    ground_marker_py	    ground_marker_pz	    ground_marker_px	    ground_marker_py	    ground_marker_pz	    ground_marker_px	    ground_marker_py	    ground_marker_pz	    ground_marker_px	    ground_marker_py	    ground_marker_pz	
          0.09166671	          0.56404930	          0.66374975	         -0.25943437	          3.08716202	         -5.09616709	          6.42027521	         23.51698303	          7.04033709	          2.20696664	        -24.18078232	         -2.25887060	          0.00000000	          0.00000000	        -18.56530380	         -4.00008726	         -9.11970711	        -36.57128143	        -22.29621506	          0.00000000	          0.00000000	        -16.84275055	          4.95926142	        -10.25500774	        -53.66633929	        344.48336599	         -3.63342674	          0.66389612	          0.00000000	         -0.21405292	          0.00000000	          0.00000000	          0.00000000	          1.12917224	          0.00000000	         -0.37946564	          0.00000000	         -0.55034064	          0.00000000	          0.00000000	          0.00000000	          0.00000000	          0.51257497	          0.59175563	         -0.24311891	          0.52565956	          0.60773903	         -0.19133735	          0.51107925	          0.59953195	         -0.30758438	          0.65102631	          0.34304518	         -0.22487900	          0.42816910	          0.30797878	         -0.29797477	          0.66156721	          0.05284800	         -0.22177485	          0.19630767	          0.13307381	         -0.27925703	          0.56404930	          0.66374975	         -0.25943437	          0.57496834	          0.66989595	         -0.17237833	          0.55313027	          0.65760356	         -0.34649041	          0.43218198	          0.69069624	         -0.20051908	          0.42592853	          0.68227524	         -0.28366616	          0.66076231	          0.34196112	         -0.17993420	          0.41590303	          0.30993876	         -0.34433967	          0.63773948	          0.34175840	         -0.26671579	          0.44271311	          0.30060449	         -0.25756717	          0.66307646	          0.05326077	         -0.18831140	          0.18634829	          0.14314608	         -0.30850780	          0.66010571	          0.05347452	         -0.24973728	          0.19437866	          0.13962270	         -0.24513113	          0.51412112	          1.00014174	         -0.25995663	          0.60367972	          0.93150783	         -0.20646988	          0.61015749	          0.92883706	         -0.29916561	          0.59160990	          0.94390672	         -0.24681100	          0.63311833	          0.80763274	         -0.24487385	          0.71748143	          0.47226983	         -0.26175922	          0.48745567	          0.37438920	         -0.41756281	          0.64868349	          0.49146795	         -0.19243948	          0.51858360	          0.42096677	         -0.33858624	          0.67272121	          0.40749323	         -0.20101558	          0.49586877	          0.34065664	         -0.31910673	          0.69807160	          0.14994417	         -0.12402601	          0.34487125	          0.12650931	         -0.27801400	          0.67769092	          0.19654278	         -0.18678556	          0.34175855	          0.20320238	         -0.29405111	          0.75067079	          0.04005340	         -0.22889414	          0.20681565	          0.05078711	         -0.26527902	
          0.10000004	          0.57628536	          0.66577065	         -0.25984687	          2.91993427	         -5.36101818	          6.27104521	         22.69569397	          7.41271257	          1.72432327	        -24.48096657	         -1.04318094	          0.00000000	          0.00000000	        -16.25474930	         -4.48779249	         -9.37862587	        -40.28118134	        -22.94210625	          0.00000000	          0.00000000	        -16.72479248	          5.23009396	         -9.93917561	        -50.47275427	        346.56577700	         -5.05552729	          0.66442316	          0.00000000	         -0.21396098	          0.00000000	          0.00000000	          0.00000000	          1.12967432	          0.00000000	         -0.37925668	          0.00000000	         -0.60034760	          0.00000000	          0.00000000	          0.00000000	          0.00000000	          0.52471066	          0.59392762	         -0.24342015	          0.53762066	          0.61020219	         -0.19154336	          0.52323133	          0.60145611	         -0.30777490	          0.65823483	          0.34334365	         -0.22481722	          0.45090708	          0.30675629	         -0.30064398	          0.66189331	          0.05280735	         -0.22176366	          0.21538042	          0.13879393	         -0.27991912	          0.57628536	          0.66577065	         -0.25984687	          0.58707970	          0.67233163	         -0.17265451	          0.56549108	          0.65920967	         -0.34703925	          0.44481385	          0.69337416	         -0.20137481	          0.43842205	          0.68443280	         -0.28442213	          0.66760272	          0.34196493	         -0.17980231	          0.43841973	          0.30870041	         -0.34695041	          0.64345944	          0.34171760	         -0.26573104	          0.46693933	          0.29775271	         -0.26040363	          0.66336751	          0.05317764	         -0.18829815	          0.20525075	          0.14942065	         -0.30891418	          0.66023320	          0.05331762	         -0.24967372	          0.21355376	          0.14643879	         -0.24554728	          0.52648360	          1.00277185	         -0.25964499	          0.61630970	          0.93375427	         -0.20662476	          0.62254393	          0.93118685	         -0.29924813	          0.60413015	          0.94629472	         -0.24695739	          0.64545310	          0.80988038	         -0.24520478	          0.72773284	          0.47086099	         -0.26095858	          0.50729859	          0.37564814	         -0.42017817	          0.65926981	          0.49092034	         -0.19143800	          0.53773981	          0.42175812	         -0.34109843	          0.68027532	          0.40624472	         -0.19977835	          0.51788932	          0.33993217	         -0.32205674	          0.70055765	          0.14898211	         -0.12394694	          0.36336622	          0.12707809	         -0.28099212	          0.68123806	          0.19577996	         -0.18638015	          0.36196452	          0.20353185	         -0.29605272	          0.75072008	          0.03982881	         -0.22897996	          0.22275157	          0.05547820	         -0.26796851	
          0.10833337	          0.58828712	          0.66793108	         -0.26031065	          2.68286800	         -5.57665110	          6.09233999	         21.78044891	          7.65588236	          1.15565228	        -24.42966270	          0.03221785	          0.00000000	          0.00000000	        -13.77692318	         -4.89635038	         -9.58329964	        -43.86368179	        -22.47899437	          0.00000000	          0.00000000	        -16.53887939	          5.54796076	         -9.53253841	        -46.21869190	        344.32946143	         -7.08467442	          0.66510822	          0.00000000	         -0.21372513	          0.00000000	          0.00000000	          0.00000000	          1.13016602	          0.00000000	         -0.37898145	          0.00000000	         -0.60855243	          0.00000000	          0.00000000	          0.00000000	          0.00000000	          0.53662705	          0.59625494	         -0.24384174	          0.54924148	          0.61279988	         -0.19186972	          0.53510398	          0.60361904	         -0.30809867	          0.66449702	          0.34345785	         -0.22429264	          0.47407714	          0.30624536	         -0.30337152	          0.66219908	          0.05279474	         -0.22162442	          0.23581457	          0.14430711	         -0.28047809	          0.58828712	          0.66793108	         -0.26031065	          0.59891504	          0.67483282	         -0.17293492	          0.57765925	          0.66102940	         -0.34768638	          0.45735130	          0.69635558	         -0.20210420	          0.45074385	          0.68686521	         -0.28505346	          0.67333883	          0.34181085	         -0.17918043	          0.46138981	          0.30811378	         -0.34962669	          0.64863902	          0.34149739	         -0.26388541	          0.49114808	          0.29609504	         -0.26322591	          0.66351026	          0.05309165	         -0.18815142	          0.22550595	          0.15540956	         -0.30923080	          0.66039234	          0.05333838	         -0.24945909	          0.23483564	          0.15210319	         -0.24597470	          0.53872353	          1.00563025	         -0.25950211	          0.62881213	          0.93623865	         -0.20703940	          0.63473594	          0.93396413	         -0.29971546	          0.61648864	          0.94890994	         -0.24733204	          0.65770537	          0.81246156	         -0.24612893	          0.73741549	          0.46899521	         -0.25954977	          0.52742040	          0.37748587	         -0.42282814	          0.66905540	          0.49047405	         -0.18991090	          0.55676031	          0.42351690	         -0.34355637	          0.68717504	          0.40473020	         -0.19782199	          0.53998232	          0.34029058	         -0.32485670	          0.70231110	          0.14803444	         -0.12350997	          0.38318694	          0.12812491	         -0.28379387	          0.68421143	          0.19518489	         -0.18568176	          0.38345289	          0.20484664	         -0.29788223	          0.75069726	          0.03971905	         -0.22893590	          0.24149343	          0.06034212	         -0.27150798	
          0.11666670	          0.60011917	          0.67025268	         -0.26079094	          2.39197540	         -5.73024178	          5.87974501	         20.76594543	          7.78349209	          0.59897381	        -24.07063866	          0.96301419	          0.00000000	          0.00000000	        -11.19262695	         -5.22241879	         -9.75309849	        -47.19879913	        -21.20465279	          0.00000000	          0.00000000	        -16.26251411	          5.78099537	         -9.03347206	        -40.87506261	        335.86650976	         -9.16923458	          0.66591046	          0.00000000	         -0.21337099	          0.00000000	          0.00000000	          0.00000000	          1.13065613	          0.00000000	         -0.37862881	          0.00000000	         -0.59000562	          0.00000000	          0.00000000	          0.00000000	          0.00000000	          0.54837400	          0.59877616	         -0.24435209	          0.56059545	          0.61552906	         -0.19229719	          0.54678613	          0.60603619	         -0.30854052	          0.66989917	          0.34346730	         -0.22340795	          0.49751645	          0.30655715	         -0.30614296	          0.66247320	          0.05280561	         -0.22138424	          0.25754774	          0.14934644	         -0.28097561	          0.60011917	          0.67025268	         -0.26079094	          0.61052418	          0.67740536	         -0.17320426	          0.58971417	          0.66310000	         -0.34837762	          0.46976009	          0.69961661	         -0.20276541	          0.46294004	          0.68955845	         -0.28560039	          0.67812788	          0.34160230	         -0.17818838	          0.48465341	          0.30830342	         -0.35235435	          0.65389276	          0.34132659	         -0.26213297	          0.51529974	          0.29579079	         -0.26603660	          0.66353434	          0.05301162	         -0.18790171	          0.24701904	          0.16085304	         -0.30948868	          0.66041160	          0.05356518	         -0.24912734	          0.25797701	          0.15646666	         -0.24644504	          0.55079353	          1.00864768	         -0.25948057	          0.64116514	          0.93896562	         -0.20777836	          0.64665759	          0.93699980	         -0.30049753	          0.62870389	          0.95177674	         -0.24793883	          0.66980100	          0.81530368	         -0.24742320	          0.74643469	          0.46681219	         -0.25774774	          0.54772049	          0.38000980	         -0.42549503	          0.67766500	          0.49013227	         -0.18842921	          0.57574415	          0.42630041	         -0.34565371	          0.69344568	          0.40348536	         -0.19582672	          0.56217462	          0.34216484	         -0.32748061	          0.70348907	          0.14714932	         -0.12280192	          0.40435243	          0.12960029	         -0.28652331	          0.68645310	          0.19477867	         -0.18487877	          0.40624237	          0.20687629	         -0.29980811	          0.75062430	          0.03967241	         -0.22880432	          0.26280007	          0.06500943	         -0.27574673	
